# xmcd
#
# Track frame offsets:
#	150
#	17194
#	38698
#	55219
#	73583
#	92399
#	111441
#	128668
#	146839
#	164159
#	181619
#
# Disc length: 2644 seconds
#
# Revision: 3
# Processed by: cddbd v1.5.2PL0 Copyright (c) Steve Scherf et al.
# Submitted via: audiograbber 1.83.01
#
DISCID=950a520b
DTITLE=Shania Twain - BS9517
DYEAR=1900
DGENRE=Karaoke
TTITLE0=You're Still The One
TTITLE1=From This Moment On
TTITLE2=Looking Through Your Eyes
TTITLE3=Any Man Of Mine
TTITLE4=Whose Bed Have Your Boots Been Under
TTITLE5=The Woman In Me
TTITLE6=Don't Be Stupid
TTITLE7=Man I Feel Like A Woman
TTITLE8=You Win My Love
TTITLE9=If You're Not In It For Love (I'm Outta Here)
TTITLE10=That Don't Impress Me Much
EXTD=
EXTT0=
EXTT1=
EXTT2=
EXTT3=
EXTT4=
EXTT5=
EXTT6=
EXTT7=
EXTT8=
EXTT9=
EXTT10=
PLAYORDER=
